<svg width="31" height="31" fill="none" xmlns="http://www.w3.org/2000/svg"><circle cx="15.5" cy="15.5" r="15.5" fill="#1E97DB"/><path d="M21.771 17.624c.67.684 1.375 1.328 1.975 2.08.265.335.516.68.708 1.069.272.552.025 1.16-.447 1.193l-2.937-.002c-.758.066-1.362-.253-1.87-.796-.407-.434-.784-.896-1.175-1.345a2.83 2.83 0 00-.528-.492c-.401-.273-.75-.189-.979.25-.233.445-.286.938-.309 1.435-.031.724-.24.915-.935.948-1.485.073-2.894-.162-4.203-.947-1.154-.691-2.05-1.668-2.828-2.774-1.517-2.152-2.679-4.518-3.722-6.95-.235-.548-.064-.842.514-.852.958-.02 1.916-.019 2.875-.002.39.006.648.24.798.626.518 1.335 1.153 2.606 1.949 3.783.212.314.428.627.736.848.34.245.6.164.76-.234a2.73 2.73 0 00.17-.793c.075-.93.085-1.857-.048-2.782-.081-.578-.392-.952-.942-1.06-.28-.057-.24-.166-.103-.334.236-.29.458-.47.9-.47h3.32c.523.108.639.354.71.905l.003 3.863c-.006.213.102.846.469.987.293.101.486-.145.663-.34.794-.884 1.362-1.928 1.868-3.01.225-.475.419-.969.606-1.462.139-.366.357-.547.75-.539l3.196.003c.094 0 .19.002.282.018.538.096.686.339.52.89-.262.864-.772 1.584-1.27 2.307-.534.773-1.103 1.519-1.632 2.296-.485.71-.447 1.067.156 1.683z" fill="#fff"/></svg>