<svg width="31" height="31" fill="none" xmlns="http://www.w3.org/2000/svg"><circle cx="15.5" cy="15.5" r="15.5" fill="#FF2507"/><path d="M23.968 10.742c-.624-.7-1.776-.986-3.976-.986h-7.985c-2.25 0-3.42.304-4.042 1.05-.606.727-.606 1.798-.606 3.281v2.826c0 2.872.719 4.33 4.649 4.33h7.985c1.907 0 2.964-.252 3.648-.87.701-.633 1-1.668 1-3.46v-2.826c0-1.563-.046-2.641-.673-3.345zm-5.514 5.148l-3.626 1.79a.582.582 0 01-.547-.016.521.521 0 01-.268-.45v-3.569c0-.184.101-.354.268-.45a.586.586 0 01.546-.017l3.626 1.778c.184.09.3.27.3.467a.524.524 0 01-.299.467z" fill="#fff"/></svg>